@startuml
'https://plantuml.com/class-diagram

interface Interface1{
    operation1()
    operation2()
    operation3()
    operation4()
    operation5()
}

class A

class B

class C

class D

'类B实现Interface1接口
Interface1<|..B
'类D实现Interface1接口
Interface1<|..D
'类A依赖Interface1接口
Interface1<..A
'类C依赖Interface1接口
Interface1<..C



@enduml